<?xml version="1.0" encoding="UTF-8"?>
<svg id="Layer_1" xmlns="http://www.w3.org/2000/svg" version="1.1" viewBox="0 0 1080 106.4">
  <!-- Generator: Adobe Illustrator 30.3.0, SVG Export Plug-In . SVG Version: 2.1.3 Build 182)  -->
  <g>
    <g>
      <path d="M71.5,64.6c-2.1-3.6-4.7-6.4-8-8.4-3.2-2-6.7-3.1-10.2-3.2v-1c3.3-.8,6.2-2.1,8.9-3.9,2.6-1.8,4.7-4.1,6.3-7,1.5-2.9,2.3-6.4,2.3-10.4s-1.2-9.3-3.6-13.3c-2.4-3.9-5.9-7-10.7-9.3-4.8-2.3-10.8-3.4-18-3.4H0v100h40.5c7.7,0,14-1.2,19-3.6,5-2.4,8.8-5.6,11.3-9.7,2.5-4.1,3.7-8.7,3.7-13.9s-1-9.4-3.1-12.9ZM18.1,19.8h18.4c5.3,0,9.3,1.3,12,3.8,2.7,2.5,4.1,5.7,4.1,9.6s-.7,5.4-2.2,7.5c-1.5,2.1-3.4,3.8-5.9,4.9-2.5,1.2-5.3,1.8-8.4,1.8h-18v-27.6ZM51.9,85.9c-2.9,2.6-7.7,3.8-14.3,3.8h-19.5v-29.3h20.1c3.7,0,6.9.7,9.6,2.1,2.7,1.4,4.8,3.3,6.3,5.6,1.5,2.4,2.2,5.1,2.2,8.1s-1.5,7.2-4.4,9.7Z"/>
      <path d="M120.8,28.9c-1.2,0-2.3-.1-3.3-.1-4.3,0-8.1,1.2-11.5,3.5-3.4,2.3-5.7,5.7-7.1,10.1h-.8v-12.6h-17.1v75h17.7v-44c0-3.2.7-6,2.2-8.5,1.5-2.4,3.5-4.3,6-5.7s5.5-2.1,8.7-2.1,3,0,4.6.3c1.6.2,2.8.4,3.6.7v-16.2c-.8-.1-1.8-.2-3.1-.3Z"/>
      <path d="M174.8,29.8v43.6c0,3.8-.8,7-2.3,9.5-1.6,2.5-3.6,4.4-6,5.6-2.4,1.3-5,1.9-7.6,1.9-4.3,0-7.7-1.3-10.3-4.2-2.6-2.8-3.9-6.6-3.9-11.3V29.8h-17.7v47.8c0,6,1.1,11.1,3.2,15.3,2.1,4.2,5.1,7.4,8.8,9.6,3.7,2.2,8.1,3.3,13,3.3,5.6,0,10.4-1.3,14.2-4,3.9-2.7,6.6-6.1,8.3-10.3h.8v13.4h17.1V29.8h-17.7Z"/>
      <path d="M196.4,29.8v13.7h43v-13.7h-43ZM237.8,90.3c-.8.2-1.6.3-2.5.5-.9.1-1.8.2-2.6.2-2.8,0-4.9-.7-6.2-2.1-1.3-1.4-1.9-3.6-1.9-6.5V11.9h-17.7v73.2c0,6.4,2,11.4,6,15.1,4,3.7,9.5,5.5,16.4,5.5s3.9-.1,5.8-.4c1.9-.3,3.8-.7,5.7-1.3l-3-13.8Z"/>
      <path d="M304.2,42.2c-1.8-3.3-4.2-6-7.2-7.9-3-2-6.3-3.4-9.9-4.2-3.6-.8-7.2-1.2-10.7-1.2-5.2,0-10,.8-14.3,2.3-4.3,1.5-8,3.9-11,6.9-3,3.1-5.1,6.9-6.4,11.4l16.4,2.3c.9-2.5,2.6-4.8,5.1-6.6,2.5-1.9,6-2.8,10.3-2.8s7.3,1,9.4,3c2.2,2,3.2,4.8,3.2,8.5v.3c0,1.7-.6,3-1.8,3.8-1.2.8-3.2,1.4-5.9,1.8-2.7.4-6.3.8-10.7,1.3-3.6.4-7.1,1-10.5,1.8-3.4.9-6.5,2.1-9.2,3.8-2.7,1.7-4.8,3.9-6.4,6.6-1.6,2.8-2.3,6.3-2.3,10.5s1.1,9.1,3.3,12.4c2.2,3.4,5.2,5.9,9,7.6,3.8,1.7,8.1,2.6,12.9,2.6s7.4-.6,10.2-1.7c2.9-1.1,5.3-2.6,7.3-4.4,1.9-1.8,3.5-3.8,4.5-5.8h.5v10.3h17v-50.2c0-5-.9-9.1-2.7-12.4ZM289.3,77.9c0,2.8-.7,5.3-2.1,7.7-1.4,2.4-3.5,4.2-6,5.6-2.6,1.4-5.7,2.1-9.3,2.1s-6.7-.8-9.1-2.5c-2.4-1.7-3.6-4.1-3.6-7.4s.6-4.1,1.8-5.6c1.2-1.4,2.8-2.6,4.9-3.4,2.1-.8,4.4-1.4,7.1-1.8,1.2-.1,2.5-.3,4.1-.5,1.6-.2,3.2-.5,4.9-.8,1.7-.3,3.1-.7,4.4-1s2.2-.8,2.8-1.2v8.8Z"/>
      <path d="M316.5,4.8v100h17.7V4.8h-17.7Z"/>
      <path d="M359.8,2.8C357.8.9,355.4,0,352.6,0s-5.2.9-7.2,2.8c-2,1.9-3,4.2-3,6.8s1,4.9,3,6.8c2,1.9,4.4,2.8,7.2,2.8s5.2-.9,7.2-2.8c2-1.9,3-4.1,3-6.8s-1-5-3-6.8ZM343.8,29.8v75h17.7V29.8h-17.7Z"/>
      <path d="M426.6,69.3c-3.5-3.4-8.8-5.8-15.8-7.2l-12.8-2.7c-3.8-.9-6.5-2-8.2-3.4-1.6-1.4-2.5-3.2-2.5-5.4s1.2-4.6,3.7-6.2c2.5-1.6,5.6-2.4,9.2-2.4s7.2,1,9.5,2.9c2.2,1.9,3.7,4.1,4.4,6.5l16-1.7c-1.2-6.4-4.3-11.4-9.4-15.2-5-3.8-12-5.7-20.8-5.7s-11.3.9-15.8,2.8c-4.6,1.9-8.1,4.5-10.7,7.9-2.6,3.4-3.8,7.4-3.8,12.1s1.7,9.9,5.2,13.5c3.5,3.5,8.8,6.1,16,7.6l12.8,2.7c6.7,1.5,10.1,4.4,10.1,8.6s-1.3,4.6-3.8,6.3c-2.6,1.7-5.9,2.6-10.1,2.6s-7.3-.9-9.9-2.6c-2.6-1.7-4.2-4.3-5-7.6l-17.3,1.6c1.1,6.9,4.5,12.3,10,16.1,5.6,3.9,12.9,5.8,22.1,5.8s11.8-1,16.6-3c4.8-2,8.6-4.8,11.3-8.5,2.7-3.6,4.1-7.8,4.1-12.5s-1.7-9.7-5.2-13Z"/>
      <path d="M432.2,29.8v13.7h43v-13.7h-43ZM473.6,90.3c-.8.2-1.6.3-2.6.5-.9.1-1.8.2-2.5.2-2.8,0-4.9-.7-6.2-2.1-1.3-1.4-1.9-3.6-1.9-6.5V11.9h-17.7v73.2c0,6.4,2,11.4,6,15.1,4,3.7,9.5,5.5,16.4,5.5s3.9-.1,5.8-.4c1.9-.3,3.8-.7,5.7-1.3l-3-13.8Z"/>
    </g>
    <g>
      <path d="M554.4,6.4l-26.4,98.2h10.5l26.4-98.2h-10.5Z"/>
      <path d="M576.1,6.4l-26.4,98.2h10.3l26.4-98.2h-10.4Z"/>
    </g>
    <g>
      <g>
        <path d="M710.3,6.4h-15.4l-44.1,48.8h-1.2V6.4h-11.8v98.2h11.8v-31.7l12.3-13.8,34.2,45.6h14.3l-41.1-53.9,41.1-44.3Z"/>
        <path d="M770.5,42.2c-2.1-4-5.1-7.1-8.8-9.1-3.8-2-8.2-3-13.2-3s-10.5,1.1-13.9,3.4c-3.4,2.3-6,5.4-7.8,9.2h-1V6.4h-11.3v98.2h11.3v-44.2c0-4.4.8-8,2.6-11,1.7-2.9,3.9-5.2,6.9-6.7,2.9-1.7,6.2-2.5,9.9-2.5,5.4,0,9.6,1.7,12.6,4.8,3,3.3,4.6,7.8,4.6,13.6v46h11.3v-46.8c0-6.3-1-11.5-3.2-15.6Z"/>
        <path d="M837.3,42.2c-1.9-3.5-4.3-6.2-7.2-7.9-2.9-1.7-6-2.9-9-3.4-3.1-.6-5.8-.9-8.2-.9-3.7,0-7.4.6-11.3,1.6-3.8,1-7.3,2.7-10.6,5.3-3.2,2.5-5.7,6-7.8,10.5l10.8,3.8c1.2-2.7,3.5-5.2,6.5-7.5,3-2.4,7.3-3.6,12.6-3.6s9.2,1.3,11.7,3.9c2.6,2.6,3.9,6.3,3.9,11v.3c0,1.8-.7,3.1-2,3.8-1.2.8-3.3,1.3-6.1,1.6-2.8.3-6.4.8-10.9,1.3-3.5.5-6.9,1-10.2,1.8-3.3.7-6.4,1.8-9.2,3.4-2.7,1.5-5,3.6-6.6,6.2-1.7,2.6-2.5,6.1-2.5,10.2s1.1,8.9,3.4,12.3c2.1,3.4,5.2,6,9,7.8,3.8,1.8,8.1,2.7,12.7,2.7s8-.7,10.9-2c3-1.2,5.4-2.8,7.2-4.6s3-3.6,3.8-5.2h.6v10h11.3v-48.5c0-5.9-.9-10.5-2.8-14ZM828.9,78c0,3-.8,6-2.4,8.7-1.6,2.8-3.9,5.1-7.1,6.9-3,1.8-6.8,2.6-11.3,2.6s-8.3-.9-11.3-2.9-4.4-5-4.4-8.9.8-5.2,2.4-6.9c1.6-1.7,3.6-2.9,6.2-3.8,2.6-.8,5.3-1.5,8.2-1.8,1.2-.1,2.8-.3,4.7-.6,2-.2,4.1-.6,6.2-.9,2-.3,3.9-.8,5.5-1.2,1.6-.4,2.6-1,3.1-1.6v10.5Z"/>
        <rect x="851.3" y="30.9" width="11.3" height="73.7"/>
        <path d="M907.6,29.9h-3.1c-4.4,0-8.3,1.1-11.9,3.4-3.5,2.3-6,5.3-7.3,8.9h-.8v-11.3h-10.8v73.7h11.1v-46.5c0-3.4.9-6.3,2.5-8.9,1.6-2.6,3.8-4.7,6.6-6.2s6-2.3,9.6-2.3,2.9.1,4.3.3c1.5.1,2.3.2,2.7.3v-11.5c-.7,0-1.6,0-2.8-.1Z"/>
        <rect x="914.2" y="30.9" width="11.3" height="73.7"/>
        <path d="M991.7,42.3c-2.1-4.2-5.1-7.2-8.8-9.2-3.7-2-8.1-3-13-3s-10.1,1.1-13.6,3.5c-3.5,2.3-6.2,5.3-7.9,9.1h-1v-11.7h-10.8v73.7h11.1v-44.2c0-4.4.9-8,2.5-11,1.7-2.9,3.9-5.2,6.7-6.7,2.9-1.7,6.1-2.5,9.7-2.5,5.3,0,9.5,1.7,12.5,5,3,3.3,4.5,7.8,4.5,13.5v46h11.3v-46.8c0-6.2-1.1-11.5-3.1-15.5Z"/>
        <path d="M1080,6.4h-15.4l-44.2,48.8h-1.1V6.4h-11.9v98.2h11.9v-31.7l12.3-13.8,34.1,45.6h14.4l-41.2-53.9,41.2-44.3Z"/>
      </g>
      <rect x="851.3" y="8.4" width="11.3" height="11.3"/>
      <rect x="914.2" y="8.4" width="11.3" height="11.3"/>
    </g>
  </g>
  <g>
    <g>
      <path d="M71.5-306.1c-2.1-3.6-4.7-6.4-8-8.4-3.2-2-6.7-3.1-10.2-3.2v-1c3.3-.8,6.2-2.1,8.9-3.9,2.6-1.8,4.7-4.1,6.3-7,1.5-2.9,2.3-6.4,2.3-10.4s-1.2-9.3-3.6-13.3c-2.4-3.9-5.9-7-10.7-9.3-4.8-2.3-10.8-3.4-18-3.4H0v100h40.5c7.7,0,14-1.2,19-3.6,5-2.4,8.8-5.6,11.3-9.7,2.5-4.1,3.7-8.7,3.7-13.9s-1-9.4-3.1-12.9ZM18.1-350.9h18.4c5.3,0,9.3,1.3,12,3.8,2.7,2.5,4.1,5.7,4.1,9.6s-.7,5.4-2.2,7.5c-1.5,2.1-3.4,3.8-5.9,4.9-2.5,1.2-5.3,1.8-8.4,1.8h-18v-27.6ZM51.9-284.8c-2.9,2.6-7.7,3.8-14.3,3.8h-19.5v-29.3h20.1c3.7,0,6.9.7,9.6,2.1,2.7,1.4,4.8,3.3,6.3,5.6,1.5,2.4,2.2,5.1,2.2,8.1s-1.5,7.2-4.4,9.7Z"/>
      <path d="M120.8-341.8c-1.2,0-2.3-.1-3.3-.1-4.3,0-8.1,1.2-11.5,3.5-3.4,2.3-5.7,5.7-7.1,10.1h-.8v-12.6h-17.1v75h17.7v-44c0-3.2.7-6,2.2-8.5,1.5-2.4,3.5-4.3,6-5.7s5.5-2.1,8.7-2.1,3,0,4.6.3c1.6.2,2.8.4,3.6.7v-16.2c-.8-.1-1.8-.2-3.1-.3Z"/>
      <path d="M174.8-340.9v43.6c0,3.8-.8,7-2.3,9.5-1.6,2.5-3.6,4.4-6,5.6-2.4,1.3-5,1.9-7.6,1.9-4.3,0-7.7-1.3-10.3-4.2-2.6-2.8-3.9-6.6-3.9-11.3v-45.1h-17.7v47.8c0,6,1.1,11.1,3.2,15.3,2.1,4.2,5.1,7.4,8.8,9.6,3.7,2.2,8.1,3.3,13,3.3,5.6,0,10.4-1.3,14.2-4,3.9-2.7,6.6-6.1,8.3-10.3h.8v13.4h17.1v-75h-17.7Z"/>
      <path d="M196.4-340.9v13.7h43v-13.7h-43ZM237.8-280.4c-.8.2-1.6.3-2.5.5-.9.1-1.8.2-2.6.2-2.8,0-4.9-.7-6.2-2.1-1.3-1.4-1.9-3.6-1.9-6.5v-70.3h-17.7v73.2c0,6.4,2,11.4,6,15.1,4,3.7,9.5,5.5,16.4,5.5s3.9-.1,5.8-.4c1.9-.3,3.8-.7,5.7-1.3l-3-13.8Z"/>
      <path d="M304.2-328.5c-1.8-3.3-4.2-6-7.2-7.9-3-2-6.3-3.4-9.9-4.2-3.6-.8-7.2-1.2-10.7-1.2-5.2,0-10,.8-14.3,2.3-4.3,1.5-8,3.9-11,6.9-3,3.1-5.1,6.9-6.4,11.4l16.4,2.3c.9-2.5,2.6-4.8,5.1-6.6,2.5-1.9,6-2.8,10.3-2.8s7.3,1,9.4,3c2.2,2,3.2,4.8,3.2,8.5v.3c0,1.7-.6,3-1.8,3.8-1.2.8-3.2,1.4-5.9,1.8-2.7.4-6.3.8-10.7,1.3-3.6.4-7.1,1-10.5,1.8-3.4.9-6.5,2.1-9.2,3.8-2.7,1.7-4.8,3.9-6.4,6.6-1.6,2.8-2.3,6.3-2.3,10.5s1.1,9.1,3.3,12.4c2.2,3.4,5.2,5.9,9,7.6,3.8,1.7,8.1,2.6,12.9,2.6s7.4-.6,10.2-1.7c2.9-1.1,5.3-2.6,7.3-4.4,1.9-1.8,3.5-3.8,4.5-5.8h.5v10.3h17v-50.2c0-5-.9-9.1-2.7-12.4ZM289.3-292.8c0,2.8-.7,5.3-2.1,7.7-1.4,2.4-3.5,4.2-6,5.6-2.6,1.4-5.7,2.1-9.3,2.1s-6.7-.8-9.1-2.5c-2.4-1.7-3.6-4.1-3.6-7.4s.6-4.1,1.8-5.6c1.2-1.4,2.8-2.6,4.9-3.4,2.1-.8,4.4-1.4,7.1-1.8,1.2-.1,2.5-.3,4.1-.5,1.6-.2,3.2-.5,4.9-.8,1.7-.3,3.1-.7,4.4-1s2.2-.8,2.8-1.2v8.8Z"/>
      <path d="M316.5-365.9v100h17.7v-100h-17.7Z"/>
      <path d="M359.8-367.9c-2-1.9-4.4-2.8-7.2-2.8s-5.2.9-7.2,2.8c-2,1.9-3,4.2-3,6.8s1,4.9,3,6.8c2,1.9,4.4,2.8,7.2,2.8s5.2-.9,7.2-2.8c2-1.9,3-4.1,3-6.8s-1-5-3-6.8ZM343.8-340.9v75h17.7v-75h-17.7Z"/>
      <path d="M426.6-301.4c-3.5-3.4-8.8-5.8-15.8-7.2l-12.8-2.7c-3.8-.9-6.5-2-8.2-3.4-1.6-1.4-2.5-3.2-2.5-5.4s1.2-4.6,3.7-6.2c2.5-1.6,5.6-2.4,9.2-2.4s7.2,1,9.5,2.9c2.2,1.9,3.7,4.1,4.4,6.5l16-1.7c-1.2-6.4-4.3-11.4-9.4-15.2-5-3.8-12-5.7-20.8-5.7s-11.3.9-15.8,2.8c-4.6,1.9-8.1,4.5-10.7,7.9-2.6,3.4-3.8,7.4-3.8,12.1s1.7,9.9,5.2,13.5c3.5,3.5,8.8,6.1,16,7.6l12.8,2.7c6.7,1.5,10.1,4.4,10.1,8.6s-1.3,4.6-3.8,6.3c-2.6,1.7-5.9,2.6-10.1,2.6s-7.3-.9-9.9-2.6c-2.6-1.7-4.2-4.3-5-7.6l-17.3,1.6c1.1,6.9,4.5,12.3,10,16.1,5.6,3.9,12.9,5.8,22.1,5.8s11.8-1,16.6-3c4.8-2,8.6-4.8,11.3-8.5,2.7-3.6,4.1-7.8,4.1-12.5s-1.7-9.7-5.2-13Z"/>
      <path d="M432.2-340.9v13.7h43v-13.7h-43ZM473.6-280.4c-.8.2-1.6.3-2.6.5-.9.1-1.8.2-2.5.2-2.8,0-4.9-.7-6.2-2.1-1.3-1.4-1.9-3.6-1.9-6.5v-70.3h-17.7v73.2c0,6.4,2,11.4,6,15.1,4,3.7,9.5,5.5,16.4,5.5s3.9-.1,5.8-.4c1.9-.3,3.8-.7,5.7-1.3l-3-13.8Z"/>
    </g>
    <g>
      <path d="M225.7-235.7l-26.4,98.2h10.5l26.4-98.2h-10.5Z"/>
      <path d="M247.4-235.7l-26.4,98.2h10.3l26.4-98.2h-10.4Z"/>
    </g>
    <g>
      <g>
        <path d="M381.6-235.7h-15.4l-44.1,48.8h-1.2v-48.8h-11.8v98.2h11.8v-31.7l12.3-13.8,34.2,45.6h14.3l-41.1-53.9,41.1-44.3Z"/>
        <path d="M441.8-199.9c-2.1-4-5.1-7.1-8.8-9.1-3.8-2-8.2-3-13.2-3s-10.5,1.1-13.9,3.4c-3.4,2.3-6,5.4-7.8,9.2h-1v-36.2h-11.3v98.2h11.3v-44.2c0-4.4.8-8,2.6-11,1.7-2.9,3.9-5.2,6.9-6.7,2.9-1.7,6.2-2.5,9.9-2.5,5.4,0,9.6,1.7,12.6,4.8,3,3.3,4.6,7.8,4.6,13.6v46h11.3v-46.8c0-6.3-1-11.5-3.2-15.6Z"/>
        <path d="M508.6-199.9c-1.9-3.5-4.3-6.2-7.2-7.9-2.9-1.7-6-2.9-9-3.4-3.1-.6-5.8-.9-8.2-.9-3.7,0-7.4.6-11.3,1.6-3.8,1-7.3,2.7-10.6,5.3-3.2,2.5-5.7,6-7.8,10.5l10.8,3.8c1.2-2.7,3.5-5.2,6.5-7.5,3-2.4,7.3-3.6,12.6-3.6s9.2,1.3,11.7,3.9c2.6,2.6,3.9,6.3,3.9,11v.3c0,1.8-.7,3.1-2,3.8-1.2.8-3.3,1.3-6.1,1.6-2.8.3-6.4.8-10.9,1.3-3.5.5-6.9,1-10.2,1.8-3.3.7-6.4,1.8-9.2,3.4-2.7,1.5-5,3.6-6.6,6.2-1.7,2.6-2.5,6.1-2.5,10.2s1.1,8.9,3.4,12.3c2.1,3.4,5.2,6,9,7.8,3.8,1.8,8.1,2.7,12.7,2.7s8-.7,10.9-2c3-1.2,5.4-2.8,7.2-4.6s3-3.6,3.8-5.2h.6v10h11.3v-48.5c0-5.9-.9-10.5-2.8-14ZM500.2-164c0,3-.8,6-2.4,8.7-1.6,2.8-3.9,5.1-7.1,6.9-3,1.8-6.8,2.6-11.3,2.6s-8.3-.9-11.3-2.9-4.4-5-4.4-8.9.8-5.2,2.4-6.9c1.6-1.7,3.6-2.9,6.2-3.8,2.6-.8,5.3-1.5,8.2-1.8,1.2-.1,2.8-.3,4.7-.6,2-.2,4.1-.6,6.2-.9,2-.3,3.9-.8,5.5-1.2,1.6-.4,2.6-1,3.1-1.6v10.5Z"/>
        <rect x="522.6" y="-211.1" width="11.3" height="73.7"/>
        <path d="M578.9-212.2h-3.1c-4.4,0-8.3,1.1-11.9,3.4-3.5,2.3-6,5.3-7.3,8.9h-.8v-11.3h-10.8v73.7h11.1v-46.5c0-3.4.9-6.3,2.5-8.9,1.6-2.6,3.8-4.7,6.6-6.2s6-2.3,9.6-2.3,2.9.1,4.3.3c1.5.1,2.3.2,2.7.3v-11.5c-.7,0-1.6,0-2.8-.1Z"/>
        <rect x="585.4" y="-211.1" width="11.3" height="73.7"/>
        <path d="M663-199.8c-2.1-4.2-5.1-7.2-8.8-9.2-3.7-2-8.1-3-13-3s-10.1,1.1-13.6,3.5c-3.5,2.3-6.2,5.3-7.9,9.1h-1v-11.7h-10.8v73.7h11.1v-44.2c0-4.4.9-8,2.5-11,1.7-2.9,3.9-5.2,6.7-6.7,2.9-1.7,6.1-2.5,9.7-2.5,5.3,0,9.5,1.7,12.5,5,3,3.3,4.5,7.8,4.5,13.5v46h11.3v-46.8c0-6.2-1.1-11.5-3.1-15.5Z"/>
        <path d="M751.3-235.7h-15.4l-44.2,48.8h-1.1v-48.8h-11.9v98.2h11.9v-31.7l12.3-13.8,34.1,45.6h14.4l-41.2-53.9,41.2-44.3Z"/>
      </g>
      <rect x="522.6" y="-233.6" width="11.3" height="11.3"/>
      <rect x="585.4" y="-233.6" width="11.3" height="11.3"/>
    </g>
  </g>
</svg>