<?xml version="1.0" encoding="UTF-8"?>
<svg id="Layer_1" xmlns="http://www.w3.org/2000/svg" version="1.1" viewBox="0 0 1080 215">
  <!-- Generator: Adobe Illustrator 30.2.1, SVG Export Plug-In . SVG Version: 2.1.1 Build 1)  -->
  <g>
    <path d="M0,215V0h39v98.9h2.6L125.6,0h47.5l-83.1,96.5,83.8,118.5h-46.9L62.8,123l-23.8,28.1v63.9H0Z"/>
    <path d="M222.5,120.6v94.4h-38V0h37.1v81.2h2c3.8-9.1,9.6-16.4,17.5-21.6,7.9-5.3,18-7.9,30.5-7.9s20.9,2.4,29.2,7.1c8.3,4.7,14.8,11.6,19.4,20.6,4.6,9,6.9,20.1,6.9,33v102.6h-38.1v-96.7c0-11-2.8-19.5-8.4-25.5-5.6-6-13.4-9-23.4-9s-12.7,1.4-18,4.3c-5.2,2.9-9.4,7-12.3,12.5-3,5.4-4.5,12.1-4.5,20Z"/>
    <path d="M398.6,215c-10.3,0-19.5-1.8-27.7-5.4-8.2-3.6-14.6-9-19.3-16.1-4.7-7.1-7.1-15.8-7.1-26.2s1.7-16.2,5.1-22.1c3.4-5.8,8-10.5,13.8-14,5.8-3.5,12.4-6.2,19.7-8,7.3-1.8,14.9-3.1,22.7-3.9,9.5-1,17.2-1.9,23.1-2.7,5.9-.8,10.1-2,12.8-3.7,2.6-1.7,4-4.3,4-7.9v-.7c0-7.6-2.3-13.6-6.9-17.8-4.6-4.2-11.4-6.4-20.2-6.4s-16.7,2-22.2,5.9c-5.4,4-9.1,8.6-11,14l-35.4-5c2.8-9.6,7.4-17.7,13.9-24.1,6.4-6.5,14.3-11.3,23.6-14.6,9.3-3.3,19.6-4.9,30.8-4.9s15.4.9,23.1,2.6c7.7,1.7,14.8,4.7,21.2,8.8,6.4,4.2,11.6,9.7,15.4,16.7,3.8,7,5.8,15.7,5.8,26.2v109.1h-36.5v-25h-1.2c-2.3,4.3-5.6,8.4-9.7,12.2-4.2,3.8-9.4,6.9-15.6,9.3-6.2,2.4-13.5,3.5-22,3.5ZM408.3,187.6c7.7,0,14.3-1.5,19.9-4.5,5.6-3,9.9-6.9,13-11.9,3.1-5,4.6-10.3,4.6-16.2v-18.5c-1.3.9-3.3,1.8-6.1,2.6-2.8.8-6,1.5-9.5,2.2-3.6.7-7,1.2-10.5,1.7-3.4.5-6.4.8-8.9,1.1-5.7.8-10.8,2-15.2,3.7-4.5,1.7-8,4.1-10.6,7.1-2.6,3-3.9,6.9-3.9,11.7,0,6.9,2.5,12.1,7.6,15.6,5.1,3.5,11.6,5.2,19.5,5.2Z"/>
    <rect x="508.8" y="53.7" width="38" height="161.3"/>
    <path d="M571.8,215V53.7h36.8v27.1h1.7c2.9-9.4,7.9-16.7,15.2-21.7,7.2-5.1,15.4-7.6,24.7-7.6s4.4,0,7,.3c2.6.2,4.8.4,6.6.7v34.9c-1.6-.6-4.2-1.1-7.6-1.4-3.5-.4-6.8-.6-10-.6-7,0-13.3,1.5-18.8,4.5-5.5,3-9.8,7.1-12.9,12.3-3.1,5.2-4.7,11.3-4.7,18.2v94.7h-38Z"/>
    <rect x="675" y="53.7" width="38" height="161.3"/>
    <path d="M776,120.6v94.4h-38V53.7h37.2v27.6h1.9c3.7-9,9.4-16.2,17.2-21.6,7.8-5.3,17.8-8,29.9-8s20.9,2.4,29.2,7.1c8.3,4.7,14.7,11.6,19.3,20.7,4.6,9.1,6.9,20.1,6.9,33v102.6h-38v-96.7c0-10.8-2.8-19.2-8.4-25.3-5.6-6.1-13.3-9.2-23.1-9.2s-12.5,1.4-17.7,4.3c-5.1,2.9-9.2,7-12.1,12.5-2.9,5.4-4.4,12.1-4.4,20Z"/>
    <path d="M906.2,215V0h39v98.9h2.6L1031.8,0h47.5l-83.1,96.5,83.8,118.5h-46.9l-64.1-92.1-23.8,28.1v63.9h-39Z"/>
  </g>
  <rect x="508.8" y="0" width="38" height="38"/>
  <rect x="675" y="0" width="38" height="38"/>
</svg>